<?xml version="1.0" standalone="no"?>
<svg xmlns:xlink="http://www.w3.org/1999/xlink" id="wave" style="transform:rotate(180deg); transition: 0.3s" viewBox="0 0 1440 410" version="1.1" xmlns="http://www.w3.org/2000/svg"><defs><linearGradient id="sw-gradient-0" x1="0" x2="0" y1="1" y2="0"><stop stop-color="rgba(243, 106, 62, 1)" offset="0%"/><stop stop-color="rgba(255, 179, 11, 1)" offset="100%"/></linearGradient></defs><path style="transform:translate(0, 0px); opacity:1" fill="url(#sw-gradient-0)" d="M0,0L48,47.8C96,96,192,191,288,218.7C384,246,480,205,576,164C672,123,768,82,864,82C960,82,1056,123,1152,116.2C1248,109,1344,55,1440,88.8C1536,123,1632,246,1728,252.8C1824,260,1920,150,2016,95.7C2112,41,2208,41,2304,47.8C2400,55,2496,68,2592,116.2C2688,164,2784,246,2880,266.5C2976,287,3072,246,3168,191.3C3264,137,3360,68,3456,61.5C3552,55,3648,109,3744,157.2C3840,205,3936,246,4032,246C4128,246,4224,205,4320,218.7C4416,232,4512,301,4608,334.8C4704,369,4800,369,4896,334.8C4992,301,5088,232,5184,225.5C5280,219,5376,273,5472,259.7C5568,246,5664,164,5760,123C5856,82,5952,82,6048,68.3C6144,55,6240,27,6336,54.7C6432,82,6528,164,6624,170.8C6720,178,6816,109,6864,75.2L6912,41L6912,410L6864,410C6816,410,6720,410,6624,410C6528,410,6432,410,6336,410C6240,410,6144,410,6048,410C5952,410,5856,410,5760,410C5664,410,5568,410,5472,410C5376,410,5280,410,5184,410C5088,410,4992,410,4896,410C4800,410,4704,410,4608,410C4512,410,4416,410,4320,410C4224,410,4128,410,4032,410C3936,410,3840,410,3744,410C3648,410,3552,410,3456,410C3360,410,3264,410,3168,410C3072,410,2976,410,2880,410C2784,410,2688,410,2592,410C2496,410,2400,410,2304,410C2208,410,2112,410,2016,410C1920,410,1824,410,1728,410C1632,410,1536,410,1440,410C1344,410,1248,410,1152,410C1056,410,960,410,864,410C768,410,672,410,576,410C480,410,384,410,288,410C192,410,96,410,48,410L0,410Z"/><defs><linearGradient id="sw-gradient-1" x1="0" x2="0" y1="1" y2="0"><stop stop-color="rgba(243, 106, 62, 1)" offset="0%"/><stop stop-color="rgba(255, 179, 11, 1)" offset="100%"/></linearGradient></defs><path style="transform:translate(0, 50px); opacity:0.9" fill="url(#sw-gradient-1)" d="M0,246L48,211.8C96,178,192,109,288,88.8C384,68,480,96,576,95.7C672,96,768,68,864,82C960,96,1056,150,1152,150.3C1248,150,1344,96,1440,68.3C1536,41,1632,41,1728,68.3C1824,96,1920,150,2016,177.7C2112,205,2208,205,2304,225.5C2400,246,2496,287,2592,273.3C2688,260,2784,191,2880,198.2C2976,205,3072,287,3168,287C3264,287,3360,205,3456,170.8C3552,137,3648,150,3744,143.5C3840,137,3936,109,4032,123C4128,137,4224,191,4320,191.3C4416,191,4512,137,4608,143.5C4704,150,4800,219,4896,225.5C4992,232,5088,178,5184,129.8C5280,82,5376,41,5472,47.8C5568,55,5664,109,5760,129.8C5856,150,5952,137,6048,164C6144,191,6240,260,6336,293.8C6432,328,6528,328,6624,293.8C6720,260,6816,191,6864,157.2L6912,123L6912,410L6864,410C6816,410,6720,410,6624,410C6528,410,6432,410,6336,410C6240,410,6144,410,6048,410C5952,410,5856,410,5760,410C5664,410,5568,410,5472,410C5376,410,5280,410,5184,410C5088,410,4992,410,4896,410C4800,410,4704,410,4608,410C4512,410,4416,410,4320,410C4224,410,4128,410,4032,410C3936,410,3840,410,3744,410C3648,410,3552,410,3456,410C3360,410,3264,410,3168,410C3072,410,2976,410,2880,410C2784,410,2688,410,2592,410C2496,410,2400,410,2304,410C2208,410,2112,410,2016,410C1920,410,1824,410,1728,410C1632,410,1536,410,1440,410C1344,410,1248,410,1152,410C1056,410,960,410,864,410C768,410,672,410,576,410C480,410,384,410,288,410C192,410,96,410,48,410L0,410Z"/></svg>